<svg width="152" height="176" viewBox="0 0 152 176" fill="none" xmlns="http://www.w3.org/2000/svg">
<path d="M1 0.250977L1.00001 167.619L27 167.619" stroke="#F77B0B" stroke-width="2"/>
<path d="M35.88 162C35.88 166.826 39.9733 169.24 48.16 169.24C56.3733 169.24 60.48 166.826 60.48 162C60.48 157.173 56.3733 154.76 48.16 154.76C39.9733 154.76 35.88 157.173 35.88 162ZM33.76 162C33.76 155.493 38.56 152.24 48.16 152.24C57.7867 152.24 62.6 155.493 62.6 162C62.6 168.506 57.8 171.76 48.2 171.76C38.5733 171.76 33.76 168.506 33.76 162ZM54 149.453L54 146.933C55.92 146.88 57.48 146.213 58.68 144.933C59.88 143.626 60.48 142 60.48 140.053C60.48 137.946 59.7333 136.253 58.24 134.973C56.7467 133.693 54.9467 133.053 52.84 133.053C50.76 133.053 49.0267 133.733 47.64 135.093C46.2533 136.426 45.56 138.133 45.56 140.213C45.56 142.96 46.6667 145.04 48.88 146.453L48.88 148.613L34.36 145.893L34.36 131.893L36.68 131.893L36.68 144.133L45.96 145.933L46.04 145.853C44.3067 144.386 43.44 142.413 43.44 139.933C43.44 137.08 44.3467 134.8 46.16 133.093C47.9467 131.386 50.2667 130.533 53.12 130.533C55.84 130.533 58.1067 131.48 59.92 133.373C61.7067 135.24 62.6 137.533 62.6 140.253C62.6 142.893 61.8267 145.08 60.28 146.813C58.7067 148.52 56.6133 149.4 54 149.453Z" fill="black"/>
<path d="M72.832 169.12L79.744 151.984H81.568L88.288 169.12H86.536L84.448 163.792H76.648L74.584 169.12H72.832ZM80.584 153.616L77.152 162.4H83.896L80.584 153.616ZM91.4772 160.888V167.728H97.0932C100.101 167.728 101.605 166.552 101.605 164.2C101.605 161.992 100.101 160.888 97.0932 160.888H91.4772ZM89.8452 169.12V151.984H97.0932C98.7092 151.984 99.9892 152.288 100.933 152.896C102.037 153.6 102.589 154.696 102.589 156.184C102.589 157.096 102.309 157.92 101.749 158.656C101.205 159.376 100.493 159.832 99.6132 160.024V160.072C100.717 160.216 101.597 160.672 102.253 161.44C102.909 162.192 103.237 163.128 103.237 164.248C103.237 167.496 101.189 169.12 97.0932 169.12H89.8452ZM91.4772 153.376V159.496H97.0932C98.3412 159.496 99.3092 159.216 99.9972 158.656C100.637 158.128 100.957 157.44 100.957 156.592C100.957 154.448 99.6692 153.376 97.0932 153.376H91.4772ZM104.941 160.552C104.941 158.056 105.613 155.984 106.957 154.336C108.429 152.528 110.453 151.624 113.029 151.624C115.589 151.624 117.605 152.528 119.077 154.336C120.421 155.984 121.093 158.056 121.093 160.552C121.093 163.048 120.421 165.12 119.077 166.768C117.605 168.576 115.589 169.48 113.029 169.48C110.453 169.48 108.429 168.576 106.957 166.768C105.613 165.12 104.941 163.048 104.941 160.552ZM106.573 160.552C106.573 162.616 107.085 164.336 108.109 165.712C109.261 167.296 110.901 168.088 113.029 168.088C115.141 168.088 116.781 167.296 117.949 165.712C118.957 164.336 119.461 162.616 119.461 160.552C119.461 158.488 118.957 156.76 117.949 155.368C116.781 153.8 115.141 153.016 113.029 153.016C110.901 153.016 109.261 153.8 108.109 155.368C107.085 156.76 106.573 158.488 106.573 160.552ZM123.474 162.952V151.984H125.106V162.592C125.106 166.256 126.778 168.088 130.122 168.088C133.482 168.088 135.162 166.256 135.162 162.592V151.984H136.794V162.952C136.794 164.872 136.282 166.4 135.258 167.536C134.09 168.832 132.378 169.48 130.122 169.48C127.882 169.48 126.178 168.832 125.01 167.536C123.986 166.384 123.474 164.856 123.474 162.952ZM138.224 153.376V151.984H151.808V153.376H145.832V169.12H144.2V153.376H138.224Z" fill="black"/>
</svg>
