<svg width="205" height="267" viewBox="0 0 205 267" fill="none" xmlns="http://www.w3.org/2000/svg">
<path d="M180.727 28.491L194.527 28.491L194.527 29.891L183.507 29.891L194.527 34.811L194.527 35.831L183.547 40.751L194.527 40.751L194.527 42.151L180.727 42.151L180.727 40.671L192.687 35.331L180.727 29.991L180.727 28.491ZM180.547 17.955L191.127 17.955C192.194 17.955 193.054 18.2817 193.707 18.935C194.347 19.5884 194.667 20.4617 194.667 21.555C194.667 22.6884 194.327 23.595 193.647 24.275C192.954 24.9417 192.021 25.275 190.847 25.275L190.847 23.855C191.607 23.8417 192.227 23.655 192.707 23.295C193.187 22.9217 193.427 22.3417 193.427 21.555C193.427 20.8084 193.207 20.255 192.767 19.895C192.327 19.535 191.781 19.355 191.127 19.355L180.547 19.355L180.547 17.955ZM180.547 3.15457L194.527 3.15457L194.527 4.55457L187.987 4.55457L187.987 12.1346L194.527 12.1346L194.527 13.5346L180.547 13.5346L180.547 12.1346L186.827 12.1346L186.827 4.55457L180.547 4.55457L180.547 3.15457Z" fill="black"/>
<path d="M189.199 57.2397L189.199 258.716L163.199 258.716" stroke="#F77B0B" stroke-width="2"/>
<path d="M148.321 232.836C148.321 228.009 144.228 225.596 136.041 225.596C127.828 225.596 123.721 228.009 123.721 232.836C123.721 237.662 127.828 240.076 136.041 240.076C144.228 240.076 148.321 237.662 148.321 232.836ZM150.441 232.836C150.441 239.342 145.641 242.596 136.041 242.596C126.415 242.596 121.601 239.342 121.601 232.836C121.601 226.329 126.401 223.076 136.001 223.076C145.628 223.076 150.441 226.329 150.441 232.836ZM129.161 245.142L131.601 245.142L150.201 258.102L150.201 260.382L131.281 260.382L131.281 264.582L129.161 264.582L129.161 260.382L122.201 260.382L122.201 258.062L129.161 258.062L129.161 245.142ZM131.281 247.422L131.281 258.062L146.521 258.062L146.521 257.982L131.281 247.422Z" fill="black"/>
<path d="M1.1113 260.716L8.0233 243.58H9.8473L16.5673 260.716H14.8153L12.7273 255.388H4.9273L2.8633 260.716H1.1113ZM8.8633 245.212L5.4313 253.996H12.1753L8.8633 245.212ZM18.1005 260.716L18.1005 243.58H19.9245L29.9085 258.076H29.9565L29.9565 243.58H31.5885L31.5885 260.716H29.7645L19.7805 246.22H19.7325L19.7325 260.716H18.1005ZM33.1269 260.716L40.0389 243.58H41.8629L48.5829 260.716H46.8309L44.7429 255.388H36.9429L34.8789 260.716H33.1269ZM40.8789 245.212L37.4469 253.996H44.1909L40.8789 245.212ZM50.1401 260.716L50.1401 243.58H51.7721L51.7721 259.324H61.3721V260.716H50.1401ZM67.8067 260.716V253.66L61.0627 243.58H63.0067L68.6467 252.268L74.2627 243.58H76.2067L69.4387 253.66V260.716H67.8067ZM76.8386 255.076H78.4706C78.4066 258.148 80.2706 259.684 84.0626 259.684C85.1506 259.684 86.1346 259.412 87.0146 258.868C88.0706 258.228 88.5986 257.34 88.5986 256.204C88.5986 254.716 87.4226 253.684 85.0706 253.108L81.2546 252.172C78.6786 251.548 77.3906 250.172 77.3906 248.044C77.3906 246.892 77.7746 245.876 78.5426 244.996C79.5826 243.812 81.1666 243.22 83.2946 243.22C85.0866 243.22 86.5666 243.668 87.7346 244.564C89.0146 245.54 89.6466 246.868 89.6306 248.548H87.9986C87.9506 247.3 87.4626 246.316 86.5346 245.596C85.6706 244.94 84.5986 244.612 83.3186 244.612C82.0706 244.612 81.0786 244.86 80.3426 245.356C79.4626 245.948 79.0226 246.836 79.0226 248.02C79.0226 249.332 79.8866 250.204 81.6146 250.636L85.7906 251.668C88.7506 252.404 90.2306 253.908 90.2306 256.18C90.2306 257.284 89.8946 258.244 89.2226 259.06C88.1346 260.404 86.2866 261.076 83.6786 261.076C81.5346 261.076 79.8626 260.596 78.6626 259.636C77.3506 258.596 76.7426 257.076 76.8386 255.076ZM92.9398 260.716V243.58H94.5718V260.716H92.9398ZM97.2761 255.076H98.9081C98.8441 258.148 100.708 259.684 104.5 259.684C105.588 259.684 106.572 259.412 107.452 258.868C108.508 258.228 109.036 257.34 109.036 256.204C109.036 254.716 107.86 253.684 105.508 253.108L101.692 252.172C99.1161 251.548 97.8281 250.172 97.8281 248.044C97.8281 246.892 98.2121 245.876 98.9801 244.996C100.02 243.812 101.604 243.22 103.732 243.22C105.524 243.22 107.004 243.668 108.172 244.564C109.452 245.54 110.084 246.868 110.068 248.548H108.436C108.388 247.3 107.9 246.316 106.972 245.596C106.108 244.94 105.036 244.612 103.756 244.612C102.508 244.612 101.516 244.86 100.78 245.356C99.9001 245.948 99.4601 246.836 99.4601 248.02C99.4601 249.332 100.324 250.204 102.052 250.636L106.228 251.668C109.188 252.404 110.668 253.908 110.668 256.18C110.668 257.284 110.332 258.244 109.66 259.06C108.572 260.404 106.724 261.076 104.116 261.076C101.972 261.076 100.3 260.596 99.1001 259.636C97.7881 258.596 97.1801 257.076 97.2761 255.076Z" fill="black"/>
</svg>
