<svg width="160" height="331" viewBox="0 0 160 331" fill="none" xmlns="http://www.w3.org/2000/svg">
<path d="M10.2 27.74L24 27.74L24 29.14L12.98 29.14L24 34.06L24 35.08L13.02 40L24 40L24 41.4L10.2 41.4L10.2 39.92L22.16 34.58L10.2 29.24L10.2 27.74ZM10.02 17.2041L20.6 17.2041C21.6667 17.2041 22.5267 17.5307 23.18 18.1841C23.82 18.8374 24.14 19.7107 24.14 20.8041C24.14 21.9374 23.8 22.8441 23.12 23.5241C22.4267 24.1907 21.4933 24.5241 20.32 24.5241L20.32 23.1041C21.08 23.0907 21.7 22.9041 22.18 22.5441C22.66 22.1707 22.9 21.5907 22.9 20.8041C22.9 20.0574 22.68 19.5041 22.24 19.1441C21.8 18.7841 21.2533 18.6041 20.6 18.6041L10.02 18.6041L10.02 17.2041ZM10.02 2.40359L24 2.40359L24 3.80359L17.46 3.80359L17.46 11.3836L24 11.3836L24 12.7836L10.02 12.7836L10.02 11.3836L16.3 11.3836L16.3 3.80359L10.02 3.80359L10.02 2.40359Z" fill="black"/>
<path d="M17 54L17 323L43 323" stroke="#F77B0B" stroke-width="2"/>
<path d="M51.88 317.38C51.88 322.207 55.9733 324.62 64.16 324.62C72.3733 324.62 76.48 322.207 76.48 317.38C76.48 312.553 72.3733 310.14 64.16 310.14C55.9733 310.14 51.88 312.553 51.88 317.38ZM49.76 317.38C49.76 310.873 54.56 307.62 64.16 307.62C73.7867 307.62 78.6 310.873 78.6 317.38C78.6 323.887 73.8 327.14 64.2 327.14C54.5733 327.14 49.76 323.887 49.76 317.38ZM57.2 302.393L55.4 302.393C55.2933 299.727 55.0133 297.953 54.56 297.073C53.8667 295.713 52.3467 294.86 50 294.513L50 292.473L78 292.473L78 294.993L57.2 294.993L57.2 302.393Z" fill="black"/>
<path d="M90.728 324.5V307.364H101.6V308.756H92.36V314.948H100.568V316.34H92.36V324.5H90.728ZM101.723 324.5L108.635 307.364H110.459L117.179 324.5H115.427L113.339 319.172H105.539L103.475 324.5H101.723ZM109.475 308.996L106.043 317.78H112.787L109.475 308.996ZM118.568 318.332V307.364H120.2V317.972C120.2 321.636 121.872 323.468 125.216 323.468C128.576 323.468 130.256 321.636 130.256 317.972V307.364H131.888V318.332C131.888 320.252 131.376 321.78 130.352 322.916C129.184 324.212 127.472 324.86 125.216 324.86C122.976 324.86 121.272 324.212 120.104 322.916C119.08 321.764 118.568 320.236 118.568 318.332ZM135.166 324.5V307.364H136.798V323.108H146.398V324.5H135.166ZM146.208 308.756V307.364H159.792V308.756H153.816V324.5H152.184V308.756H146.208Z" fill="black"/>
</svg>
