<svg width="137" height="589" viewBox="0 0 137 589" fill="none" xmlns="http://www.w3.org/2000/svg">
<path d="M1 0L1.00003 581.229L27 581.229" stroke="#F77B0B" stroke-width="2"/>
<path d="M35.88 575.609C35.88 580.436 39.9733 582.849 48.16 582.849C56.3733 582.849 60.48 580.436 60.48 575.609C60.48 570.782 56.3733 568.369 48.16 568.369C39.9733 568.369 35.88 570.782 35.88 575.609ZM33.76 575.609C33.76 569.102 38.56 565.849 48.16 565.849C57.7867 565.849 62.6 569.102 62.6 575.609C62.6 582.116 57.8 585.369 48.2 585.369C38.5733 585.369 33.76 582.116 33.76 575.609ZM53.08 563.183L53.08 560.663C55.32 560.743 57.12 560.156 58.48 558.903C59.8133 557.649 60.48 555.903 60.48 553.663C60.48 551.716 59.9467 550.063 58.88 548.703C57.7333 547.236 56.2 546.503 54.28 546.503C52.3867 546.503 50.9067 547.156 49.84 548.463C48.8533 549.689 48.36 551.276 48.36 553.223L48.36 555.343L46.24 555.343L46.24 553.223C46.24 551.756 45.8267 550.489 45 549.423C44.0667 548.169 42.7867 547.543 41.16 547.543C39.4 547.543 38.0533 548.143 37.12 549.343C36.2933 550.436 35.88 551.876 35.88 553.663C35.88 555.716 36.5333 557.303 37.84 558.423C39.12 559.543 40.8267 560.076 42.96 560.023L42.96 562.543C40.2667 562.516 38.0667 561.703 36.36 560.103C34.6267 558.503 33.76 556.369 33.76 553.703C33.76 551.303 34.32 549.303 35.44 547.703C36.7467 545.916 38.56 545.023 40.88 545.023C42.4267 545.023 43.76 545.449 44.88 546.303C46 547.129 46.7333 548.276 47.08 549.743L47.16 549.743C47.4533 547.929 48.2267 546.516 49.48 545.503C50.7067 544.489 52.24 543.983 54.08 543.983C56.72 543.983 58.8267 544.943 60.4 546.863C61.8667 548.649 62.6 550.903 62.6 553.623C62.6 556.609 61.7467 558.996 60.04 560.783C58.3333 562.569 56.0133 563.369 53.08 563.183Z" fill="black"/>
<path d="M89.368 574.017V582.729H88.192L87.976 579.609H87.928C86.84 581.929 84.864 583.089 82 583.089C79.424 583.089 77.4 582.185 75.928 580.377C74.584 578.729 73.912 576.657 73.912 574.161C73.912 571.665 74.584 569.593 75.928 567.945C77.4 566.137 79.424 565.233 82 565.233C83.856 565.233 85.424 565.713 86.704 566.673C88.032 567.681 88.848 569.097 89.152 570.921H87.52C87.408 569.833 86.872 568.873 85.912 568.041C84.84 567.097 83.536 566.625 82 566.625C79.872 566.625 78.232 567.409 77.08 568.977C76.056 570.369 75.544 572.097 75.544 574.161C75.544 576.225 76.056 577.945 77.08 579.321C78.232 580.905 79.872 581.697 82 581.697C83.856 581.697 85.328 581.105 86.416 579.921C87.456 578.769 87.96 577.265 87.928 575.409H82.096V574.017H89.368ZM91.6051 574.161C91.6051 571.665 92.2771 569.593 93.6211 567.945C95.0931 566.137 97.1171 565.233 99.6931 565.233C102.253 565.233 104.269 566.137 105.741 567.945C107.085 569.593 107.757 571.665 107.757 574.161C107.757 576.657 107.085 578.729 105.741 580.377C104.269 582.185 102.253 583.089 99.6931 583.089C97.1171 583.089 95.0931 582.185 93.6211 580.377C92.2771 578.729 91.6051 576.657 91.6051 574.161ZM93.2371 574.161C93.2371 576.225 93.7491 577.945 94.7731 579.321C95.9251 580.905 97.5651 581.697 99.6931 581.697C101.805 581.697 103.445 580.905 104.613 579.321C105.621 577.945 106.125 576.225 106.125 574.161C106.125 572.097 105.621 570.369 104.613 568.977C103.445 567.409 101.805 566.625 99.6931 566.625C97.5651 566.625 95.9251 567.409 94.7731 568.977C93.7491 570.369 93.2371 572.097 93.2371 574.161ZM108.41 582.729L115.322 565.593H117.146L123.866 582.729H122.114L120.026 577.401H112.226L110.162 582.729H108.41ZM116.162 567.225L112.73 576.009H119.474L116.162 567.225ZM125.423 582.729V565.593H127.055V581.337H136.655V582.729H125.423Z" fill="black"/>
</svg>
