<svg width="444" height="461" viewBox="0 0 444 461" fill="none" xmlns="http://www.w3.org/2000/svg">
<g opacity="0.5">
<path d="M-268.319 204.459C-217.328 267.009 -78.1053 383.664 70.8532 349.886C257.051 307.664 312.619 206.071 334.321 151.547C351.684 107.928 372.644 26.1363 380.953 -9.30744" stroke="#807F7F"/>
<path d="M-270.215 196.58C-219.224 259.13 -80.0018 375.786 68.9567 342.008C255.155 299.786 310.722 198.193 332.425 143.669C349.787 100.05 370.747 18.258 379.057 -17.1857" stroke="#807F7F"/>
<path d="M-272.112 188.702C-221.12 251.252 -81.8983 367.908 67.0603 334.13C253.258 291.907 308.826 190.314 330.528 135.791C347.891 92.1719 368.851 10.3797 377.16 -25.064" stroke="#807F7F"/>
<path d="M-274.006 180.824C-223.015 243.374 -83.7928 360.03 65.1657 326.252C251.364 284.029 306.931 182.436 328.634 127.913C345.996 84.2937 366.956 2.50152 375.266 -32.9422" stroke="#807F7F"/>
<path d="M-275.901 172.946C-224.91 235.496 -85.6873 352.151 63.2712 318.373C249.469 276.151 305.036 174.558 326.739 120.034C344.102 76.4154 365.062 -5.37677 373.371 -40.8205" stroke="#807F7F"/>
<path d="M-277.797 165.067C-226.806 227.617 -87.5838 344.273 61.3747 310.495C247.573 268.273 303.14 166.68 324.843 112.156C342.205 68.5371 363.165 -13.2551 371.475 -48.6988" stroke="#807F7F"/>
<path d="M-279.692 157.189C-228.701 219.739 -89.4784 336.395 59.4802 302.617C245.678 260.394 301.245 158.801 322.948 104.278C340.311 60.6589 361.271 -21.1332 369.58 -56.577" stroke="#807F7F"/>
<path d="M-281.586 149.311C-230.595 211.861 -91.3729 328.517 57.5857 294.739C243.784 252.516 299.351 150.923 321.054 96.3995C338.416 52.7806 359.376 -29.0115 367.686 -64.4553" stroke="#807F7F"/>
<path d="M-283.483 141.432C-232.492 203.983 -93.2694 320.638 55.6892 286.86C241.887 244.638 297.454 143.045 319.157 88.5212C336.52 44.9023 357.48 -36.8898 365.789 -72.3336" stroke="#807F7F"/>
<path d="M-285.379 133.554C-234.388 196.104 -95.1659 312.76 53.7927 278.982C239.991 236.76 295.558 135.167 317.261 80.643C334.623 37.0242 355.583 -44.768 363.893 -80.2117" stroke="#807F7F"/>
<path d="M-287.274 125.676C-236.283 188.226 -97.0604 304.882 51.8982 271.104C238.096 228.881 293.663 127.288 315.366 72.7648C332.729 29.146 353.689 -52.6462 361.998 -88.0899" stroke="#807F7F"/>
<path d="M-289.168 117.798C-238.177 180.348 -98.9549 297.004 50.0036 263.226C236.202 221.003 291.769 119.41 313.472 64.8864C330.834 21.2676 351.794 -60.5246 360.104 -95.9683" stroke="#807F7F"/>
<path d="M-291.065 109.92C-240.074 172.47 -100.851 289.125 48.1071 255.347C234.305 213.125 289.872 111.532 311.575 57.0082C328.938 13.3894 349.898 -68.4028 358.207 -103.846" stroke="#807F7F"/>
<path d="M-292.959 102.041C-241.968 164.591 -102.746 281.247 46.2126 247.469C232.411 205.247 287.978 103.654 309.681 49.1299C327.043 5.5111 348.003 -76.2811 356.313 -111.725" stroke="#807F7F"/>
<path d="M-294.854 94.1631C-243.863 156.713 -104.64 273.369 44.3181 239.591C230.516 197.368 286.083 95.7753 307.786 41.2518C325.149 -2.36708 346.109 -84.1592 354.418 -119.603" stroke="#807F7F"/>
<path d="M-296.75 86.2848C-245.759 148.835 -106.537 265.491 42.4216 231.713C228.62 189.49 284.187 87.897 305.89 33.3735C323.252 -10.2454 344.212 -92.0375 352.522 -127.481" stroke="#807F7F"/>
<path d="M-298.647 78.4064C-247.656 140.956 -108.433 257.612 40.5251 223.834C226.723 181.612 282.29 80.0186 303.993 25.4951C321.356 -18.1238 342.316 -99.916 350.625 -135.36" stroke="#807F7F"/>
<path d="M-300.541 70.5282C-249.55 133.078 -110.328 249.734 38.6306 215.956C224.829 173.733 280.396 72.1404 302.099 17.6169C319.461 -26.002 340.421 -107.794 348.731 -143.238" stroke="#807F7F"/>
</g>
</svg>
