<svg width="699" height="806" viewBox="0 0 699 806" fill="none" xmlns="http://www.w3.org/2000/svg">
<g opacity="0.5">
<path d="M-13.2504 550.259C37.7408 612.809 176.963 729.464 325.922 695.686C512.12 653.464 567.687 551.871 589.39 497.347C606.752 453.729 627.712 371.936 636.022 336.493" stroke="#807F7F"/>
<path d="M-15.1469 542.38C35.8444 604.93 175.067 721.586 324.025 687.808C510.223 645.586 565.79 543.993 587.493 489.469C604.856 445.85 625.816 364.058 634.125 328.614" stroke="#807F7F"/>
<path d="M-17.0434 534.502C33.9479 597.052 173.17 713.708 322.129 679.93C508.327 637.707 563.894 536.114 585.597 481.591C602.959 437.972 623.919 356.18 632.229 320.736" stroke="#807F7F"/>
<path d="M-18.9379 526.624C32.0533 589.174 171.276 705.83 320.234 672.052C506.432 629.829 561.999 528.236 583.702 473.713C601.065 430.094 622.025 348.302 630.334 312.858" stroke="#807F7F"/>
<path d="M-20.8325 518.746C30.1588 581.296 169.381 697.951 318.34 664.173C504.538 621.951 560.105 520.358 581.808 465.834C599.17 422.215 620.13 340.423 628.44 304.98" stroke="#807F7F"/>
<path d="M-22.729 510.867C28.2623 573.417 167.485 690.073 316.443 656.295C502.641 614.073 558.208 512.48 579.911 457.956C597.274 414.337 618.234 332.545 626.543 297.101" stroke="#807F7F"/>
<path d="M-24.6235 502.989C26.3678 565.539 165.59 682.195 314.549 648.417C500.747 606.194 556.314 504.601 578.017 450.078C595.379 406.459 616.339 324.667 624.649 289.223" stroke="#807F7F"/>
<path d="M-26.518 495.111C24.4733 557.661 163.695 674.317 312.654 640.539C498.852 598.316 554.419 496.723 576.122 442.2C593.484 398.581 614.445 316.789 622.754 281.345" stroke="#807F7F"/>
<path d="M-28.4145 487.233C22.5768 549.783 161.799 666.438 310.758 632.66C496.956 590.438 552.523 488.845 574.226 434.321C591.588 390.702 612.548 308.91 620.858 273.466" stroke="#807F7F"/>
<path d="M-30.311 479.354C20.6803 541.904 159.903 658.56 308.861 624.782C495.059 582.56 550.626 480.967 572.329 426.443C589.691 382.824 610.652 301.032 618.961 265.588" stroke="#807F7F"/>
<path d="M-32.2055 471.476C18.7858 534.026 158.008 650.682 306.967 616.904C493.165 574.681 548.732 473.088 570.435 418.565C587.797 374.946 608.757 293.154 617.067 257.71" stroke="#807F7F"/>
<path d="M-34.1001 463.598C16.8912 526.148 156.113 642.804 305.072 609.026C491.27 566.803 546.837 465.21 568.54 410.686C585.902 367.068 606.862 285.275 615.172 249.832" stroke="#807F7F"/>
<path d="M-35.9965 455.72C14.9947 518.27 154.217 634.925 303.175 601.147C489.374 558.925 544.941 457.332 566.644 402.808C584.006 359.189 604.966 277.397 613.276 241.954" stroke="#807F7F"/>
<path d="M-37.8911 447.841C13.1002 510.391 152.322 627.047 301.281 593.269C487.479 551.047 543.046 449.454 564.749 394.93C582.111 351.311 603.071 269.519 611.381 234.075" stroke="#807F7F"/>
<path d="M-39.7856 439.963C11.2057 502.513 150.428 619.169 299.386 585.391C485.585 543.168 541.152 441.575 562.855 387.052C580.217 343.433 601.177 261.641 609.487 226.197" stroke="#807F7F"/>
<path d="M-41.6821 432.085C9.3092 494.635 148.531 611.291 297.49 577.513C483.688 535.29 539.255 433.697 560.958 379.174C578.32 335.555 599.28 253.763 607.59 218.319" stroke="#807F7F"/>
<path d="M-43.5786 424.206C7.41271 486.757 146.635 603.412 295.593 569.634C481.792 527.412 537.359 425.819 559.062 371.295C576.424 327.676 597.384 245.884 605.694 210.44" stroke="#807F7F"/>
<path d="M-45.4731 416.328C5.51818 478.878 144.74 595.534 293.699 561.756C479.897 519.534 535.464 417.94 557.167 363.417C574.529 319.798 595.489 238.006 603.799 202.562" stroke="#807F7F"/>
</g>
</svg>
