<svg width="94" height="329" viewBox="0 0 94 329" fill="none" xmlns="http://www.w3.org/2000/svg">
<path d="M69.7293 27.991L83.5293 27.991L83.5293 29.391L72.5093 29.391L83.5293 34.311L83.5293 35.331L72.5493 40.251L83.5293 40.251L83.5293 41.651L69.7293 41.651L69.7293 40.171L81.6893 34.831L69.7293 29.491L69.7293 27.991ZM69.5493 17.455L80.1293 17.455C81.196 17.455 82.056 17.7817 82.7093 18.435C83.3493 19.0884 83.6693 19.9617 83.6693 21.055C83.6693 22.1884 83.3293 23.095 82.6493 23.775C81.956 24.4417 81.0226 24.775 79.8493 24.775L79.8493 23.355C80.6093 23.3417 81.2293 23.155 81.7093 22.795C82.1893 22.4217 82.4293 21.8417 82.4293 21.055C82.4293 20.3084 82.2093 19.755 81.7693 19.395C81.3293 19.035 80.7826 18.855 80.1293 18.855L69.5493 18.855L69.5493 17.455ZM69.5493 2.65457L83.5293 2.65457L83.5293 4.05457L76.9893 4.05457L76.9893 11.6346L83.5293 11.6346L83.5293 13.0346L69.5493 13.0346L69.5493 11.6346L75.8293 11.6346L75.8293 4.05457L69.5493 4.05457L69.5493 2.65457Z" fill="black"/>
<path d="M78.1992 54.251L78.1992 323.251L52.1992 323.251" stroke="#F77B0B" stroke-width="2"/>
<path d="M37.3212 294.871C37.3212 290.044 33.2278 287.631 25.0412 287.631C16.8278 287.631 12.7212 290.044 12.7212 294.871C12.7212 299.698 16.8278 302.111 25.0412 302.111C33.2278 302.111 37.3212 299.698 37.3212 294.871ZM39.4412 294.871C39.4412 301.378 34.6412 304.631 25.0412 304.631C15.4145 304.631 10.6012 301.378 10.6012 294.871C10.6012 288.364 15.4012 285.111 25.0012 285.111C34.6278 285.111 39.4412 288.364 39.4412 294.871ZM13.5212 325.858L11.2012 325.858L11.2012 307.418C13.6812 307.471 15.8678 308.311 17.7612 309.938C18.9612 310.978 20.4145 312.778 22.1212 315.338C23.9612 318.084 25.3612 319.938 26.3212 320.898C27.8678 322.444 29.6278 323.218 31.6012 323.218C33.3612 323.218 34.7745 322.591 35.8412 321.338C36.8278 320.164 37.3212 318.698 37.3212 316.938C37.3212 314.778 36.5345 313.138 34.9612 312.018C33.5745 311.031 31.7612 310.564 29.5212 310.618L29.5212 308.098C32.5078 308.044 34.8812 308.764 36.6412 310.258C38.5078 311.831 39.4412 314.098 39.4412 317.058C39.4412 319.591 38.7745 321.644 37.4412 323.218C36.0278 324.898 34.0678 325.738 31.5612 325.738C29.4278 325.738 27.4812 325.018 25.7212 323.578C24.4145 322.511 23.0412 320.884 21.6012 318.698C19.4945 315.498 18.3878 313.844 18.2812 313.738C16.7078 311.738 15.1212 310.591 13.5212 310.298L13.5212 325.858Z" fill="black"/>
</svg>
