<svg width="94" height="267" viewBox="0 0 94 267" fill="none" xmlns="http://www.w3.org/2000/svg">
<path d="M69.7273 27.7937L83.5273 27.7937L83.5273 29.1937L72.5073 29.1937L83.5273 34.1137L83.5273 35.1337L72.5473 40.0537L83.5273 40.0537L83.5273 41.4537L69.7273 41.4537L69.7273 39.9737L81.6873 34.6337L69.7273 29.2937L69.7273 27.7937ZM69.5473 17.2578L80.1273 17.2578C81.194 17.2578 82.054 17.5844 82.7073 18.2378C83.3473 18.8911 83.6673 19.7644 83.6673 20.8578C83.6673 21.9911 83.3273 22.8978 82.6473 23.5778C81.954 24.2444 81.0207 24.5778 79.8473 24.5778L79.8473 23.1578C80.6073 23.1444 81.2273 22.9578 81.7073 22.5978C82.1873 22.2244 82.4273 21.6444 82.4273 20.8578C82.4273 20.1111 82.2073 19.5578 81.7673 19.1978C81.3273 18.8378 80.7807 18.6578 80.1273 18.6578L69.5473 18.6578L69.5473 17.2578ZM69.5473 2.4573L83.5273 2.4573L83.5273 3.8573L76.9873 3.8573L76.9873 11.4373L83.5273 11.4373L83.5273 12.8373L69.5473 12.8373L69.5473 11.4373L75.8273 11.4373L75.8273 3.8573L69.5473 3.8573L69.5473 2.4573Z" fill="black"/>
<path d="M78.1992 56.5425L78.1992 258.019L52.1992 258.019" stroke="#F77B0B" stroke-width="2"/>
<path d="M37.3212 232.139C37.3212 227.312 33.2278 224.899 25.0412 224.899C16.8278 224.899 12.7212 227.312 12.7212 232.139C12.7212 236.965 16.8278 239.379 25.0412 239.379C33.2278 239.379 37.3212 236.965 37.3212 232.139ZM39.4412 232.139C39.4412 238.645 34.6412 241.899 25.0412 241.899C15.4145 241.899 10.6012 238.645 10.6012 232.139C10.6012 225.632 15.4012 222.379 25.0012 222.379C34.6278 222.379 39.4412 225.632 39.4412 232.139ZM27.3212 254.845C27.3212 252.712 26.6145 251.018 25.2012 249.765C23.8145 248.512 22.0545 247.885 19.9212 247.885C17.8145 247.885 16.1212 248.445 14.8412 249.565C13.4278 250.792 12.7212 252.565 12.7212 254.885C12.7212 256.832 13.4412 258.458 14.8812 259.765C16.2412 260.992 17.9212 261.605 19.9212 261.605C22.0278 261.605 23.7745 261.018 25.1612 259.845C26.6012 258.592 27.3212 256.925 27.3212 254.845ZM32.1212 263.445L32.1212 260.925C33.6945 260.712 34.9478 260.085 35.8812 259.045C36.8412 258.005 37.3212 256.685 37.3212 255.085C37.3212 252.178 35.8678 250.072 32.9612 248.765C30.8545 247.832 28.1345 247.365 24.8012 247.365L24.8012 247.445C26.1878 248.112 27.3078 249.125 28.1612 250.485C29.0145 251.845 29.4412 253.312 29.4412 254.885C29.4412 257.658 28.5745 259.885 26.8412 261.565C25.1078 263.272 22.8545 264.125 20.0812 264.125C17.3612 264.125 15.0945 263.232 13.2812 261.445C11.4945 259.658 10.6012 257.392 10.6012 254.645C10.6012 251.205 11.7345 248.712 14.0012 247.165C16.2678 245.618 20.0945 244.845 25.4812 244.845C28.6012 244.845 31.3478 245.365 33.7212 246.405C37.5345 248.085 39.4412 250.898 39.4412 254.845C39.4412 259.992 37.0012 262.858 32.1212 263.445Z" fill="black"/>
</svg>
