<svg width="212" height="332" viewBox="0 0 212 332" fill="none" xmlns="http://www.w3.org/2000/svg">
<path d="M10.2 28.4959L24 28.4959L24 29.8959L12.98 29.8959L24 34.8159L24 35.8359L13.02 40.7559L24 40.7559L24 42.1559L10.2 42.1559L10.2 40.6759L22.16 35.3359L10.2 29.9959L10.2 28.4959ZM10.02 17.9599L20.6 17.9599C21.6667 17.9599 22.5267 18.2866 23.18 18.9399C23.82 19.5933 24.14 20.4666 24.14 21.5599C24.14 22.6933 23.8 23.5999 23.12 24.2799C22.4267 24.9466 21.4933 25.2799 20.32 25.2799L20.32 23.8599C21.08 23.8466 21.7 23.6599 22.18 23.2999C22.66 22.9266 22.9 22.3466 22.9 21.5599C22.9 20.8133 22.68 20.2599 22.24 19.8999C21.8 19.5399 21.2533 19.3599 20.6 19.3599L10.02 19.3599L10.02 17.9599ZM10.02 3.15945L24 3.15945L24 4.55945L17.46 4.55945L17.46 12.1395L24 12.1395L24 13.5395L10.02 13.5395L10.02 12.1395L16.3 12.1395L16.3 4.55945L10.02 4.55945L10.02 3.15945Z" fill="black"/>
<path d="M17 54.7559L17 323.756L43 323.756" stroke="#F77B0B" stroke-width="2"/>
<path d="M51.88 318.136C51.88 322.963 55.9733 325.376 64.16 325.376C72.3733 325.376 76.48 322.963 76.48 318.136C76.48 313.309 72.3733 310.896 64.16 310.896C55.9733 310.896 51.88 313.309 51.88 318.136ZM49.76 318.136C49.76 311.629 54.56 308.376 64.16 308.376C73.7867 308.376 78.6 311.629 78.6 318.136C78.6 324.643 73.8 327.896 64.2 327.896C54.5733 327.896 49.76 324.643 49.76 318.136ZM52.68 304.989L50.36 304.989L50.36 286.989L52.68 286.989C60.0933 294.083 68.5333 297.856 78 298.309L78 301.029C73.2267 300.683 68.92 299.643 65.08 297.909C61.2133 296.149 57.08 293.349 52.68 289.509L52.68 304.989Z" fill="black"/>
<path d="M88.88 309.512V308.12H102.464V309.512H96.488V325.256H94.856V309.512H88.88ZM102.168 325.256L109.08 308.12H110.904L117.624 325.256H115.872L113.784 319.928H105.984L103.92 325.256H102.168ZM109.92 309.752L106.488 318.536H113.232L109.92 309.752ZM119.181 325.256V308.12H120.813V317.336L130.773 308.12H132.981L125.325 315.2L133.341 325.256H131.229L124.101 316.328L120.813 319.376V325.256H119.181ZM134.744 325.256V308.12H146.576V309.512H136.376V315.704H145.928V317.096H136.376V323.864H146.696V325.256H134.744ZM154.786 319.616H156.418C156.354 322.688 158.218 324.224 162.01 324.224C163.098 324.224 164.082 323.952 164.962 323.408C166.018 322.768 166.546 321.88 166.546 320.744C166.546 319.256 165.37 318.224 163.018 317.648L159.202 316.712C156.626 316.088 155.338 314.712 155.338 312.584C155.338 311.432 155.722 310.416 156.49 309.536C157.53 308.352 159.114 307.76 161.242 307.76C163.034 307.76 164.514 308.208 165.682 309.104C166.962 310.08 167.594 311.408 167.578 313.088H165.946C165.898 311.84 165.41 310.856 164.482 310.136C163.618 309.48 162.546 309.152 161.266 309.152C160.018 309.152 159.026 309.4 158.29 309.896C157.41 310.488 156.97 311.376 156.97 312.56C156.97 313.872 157.834 314.744 159.562 315.176L163.738 316.208C166.698 316.944 168.178 318.448 168.178 320.72C168.178 321.824 167.842 322.784 167.17 323.6C166.082 324.944 164.234 325.616 161.626 325.616C159.482 325.616 157.81 325.136 156.61 324.176C155.298 323.136 154.69 321.616 154.786 319.616ZM168.919 309.512V308.12H182.503V309.512H176.527V325.256H174.895V309.512H168.919ZM184.103 325.256V308.12H195.935V309.512H185.735V315.704H195.287V317.096H185.735V323.864H196.055V325.256H184.103ZM198.33 325.256V308.12H205.938C207.49 308.12 208.722 308.552 209.634 309.416C210.562 310.28 211.026 311.48 211.026 313.016C211.026 314.552 210.562 315.752 209.634 316.616C208.722 317.48 207.49 317.912 205.938 317.912H199.962V325.256H198.33ZM199.962 309.512V316.52H205.578C206.746 316.52 207.674 316.224 208.362 315.632C209.05 315.024 209.394 314.152 209.394 313.016C209.394 311.88 209.042 311 208.338 310.376C207.666 309.8 206.746 309.512 205.578 309.512H199.962Z" fill="black"/>
</svg>
